<?xml version="1.0" encoding="UTF-8"?>
<svg id="Layer_1" data-name="Layer 1" xmlns="http://www.w3.org/2000/svg" xmlns:xlink="http://www.w3.org/1999/xlink" viewBox="0 0 3000 723.15">
  <defs>
    <style>
      .cls-1 {
        fill: url(#linear-gradient);
      }

      .cls-2 {
        fill: #00384b;
      }

      .cls-3 {
        fill: url(#linear-gradient-8);
      }

      .cls-4 {
        fill: url(#linear-gradient-9);
      }

      .cls-5 {
        fill: url(#linear-gradient-3);
      }

      .cls-6 {
        fill: url(#linear-gradient-4);
      }

      .cls-7 {
        fill: url(#linear-gradient-2);
      }

      .cls-8 {
        fill: url(#linear-gradient-6);
      }

      .cls-9 {
        fill: url(#linear-gradient-7);
      }

      .cls-10 {
        fill: url(#linear-gradient-5);
      }

      .cls-11 {
        opacity: .19;
      }

      .cls-12 {
        fill: url(#linear-gradient-10);
      }

      .cls-13 {
        fill: url(#linear-gradient-11);
      }
    </style>
    <linearGradient id="linear-gradient" x1="2494.11" y1="1220.45" x2="1741.92" y2="14.11" gradientUnits="userSpaceOnUse">
      <stop offset="0" stop-color="#009c69"/>
      <stop offset="1" stop-color="#00f269"/>
    </linearGradient>
    <linearGradient id="linear-gradient-2" x1="2669.19" y1="1111.29" x2="1917" y2="-95.05" xlink:href="#linear-gradient"/>
    <linearGradient id="linear-gradient-3" x1="2858.79" y1="993.06" x2="2106.61" y2="-213.28" xlink:href="#linear-gradient"/>
    <linearGradient id="linear-gradient-4" x1="3097.74" y1="844.07" x2="2345.55" y2="-362.27" xlink:href="#linear-gradient"/>
    <linearGradient id="linear-gradient-5" x1="383.58" y1="367.14" x2="379.26" y2="367.14" xlink:href="#linear-gradient"/>
    <linearGradient id="linear-gradient-6" x1="506.1" y1="215.82" x2="99.77" y2="215.82" xlink:href="#linear-gradient"/>
    <linearGradient id="linear-gradient-7" x1="435.98" y1="625.64" x2="311.41" y2="377.83" xlink:href="#linear-gradient"/>
    <linearGradient id="linear-gradient-8" x1="141.62" y1="506.5" x2="206.56" y2="646.97" xlink:href="#linear-gradient"/>
    <linearGradient id="linear-gradient-9" x1="163.66" y1="183.54" x2="163.66" y2="314.73" xlink:href="#linear-gradient"/>
    <linearGradient id="linear-gradient-10" x1="-12.17" y1="596.17" x2="459.6" y2="368.23" xlink:href="#linear-gradient"/>
    <linearGradient id="linear-gradient-11" x1="302.48" y1="366.93" x2="302.48" y2="64.72" xlink:href="#linear-gradient"/>
  </defs>
  <path class="cls-2" d="M814.9,497.92h-73.4V207.53h129.37c29.05,0,52.3,3.52,69.73,10.55,17.43,7.04,29.97,18.51,37.62,34.41,7.64,15.9,11.47,37.47,11.47,64.68,0,25.69-3.83,46.56-11.47,62.62-7.65,16.06-20.18,27.91-37.62,35.55-17.43,7.65-40.68,11.47-69.73,11.47h-55.97v71.11Zm44.04-230.3h-44.04v99.09h44.04c21.71,0,36.24-3.67,43.58-11.01,7.34-7.34,11.01-20.19,11.01-38.54s-3.67-30.05-11.01-37.85c-7.34-7.8-21.87-11.7-43.58-11.7Z"/>
  <path class="cls-2" d="M1225.48,490.58c-8.57,3.06-20.42,5.73-35.55,8.03-15.14,2.3-33.11,3.44-53.91,3.44-26.31,0-48.7-3.44-67.21-10.32-18.51-6.88-32.5-18.65-41.98-35.32-9.49-16.67-14.22-39.84-14.22-69.5,0-40.37,9.25-69.58,27.75-87.63,18.5-18.04,47.17-27.06,86.02-27.06,27.83,0,49.78,3.98,65.83,11.93,16.06,7.96,27.53,19.19,34.41,33.72,6.88,14.53,10.32,31.73,10.32,51.61,0,5.81-.23,12.09-.69,18.81-.46,6.73-1.3,13.3-2.52,19.73l-1.83,1.83h-150.93c2.14,13.46,8.48,22.33,19.04,26.61,10.55,4.29,27.75,6.42,51.61,6.42,15.9,0,29.13-.38,39.68-1.15,10.55-.76,21.33-1.91,32.34-3.44l1.83,1.38v50.92Zm-52.3-128.91c0-7.34-1.15-13.68-3.44-19.04-2.29-5.35-6.81-9.47-13.53-12.38-6.73-2.91-16.68-4.36-29.82-4.36-19.26,0-31.88,3.29-37.85,9.87-5.97,6.58-8.95,15.22-8.95,25.92h93.59Z"/>
  <path class="cls-2" d="M1360.81,272.21c29.36,0,53.06,3.06,71.11,9.17,18.04,6.12,31.26,17.36,39.69,33.72,8.41,16.37,12.62,39.99,12.62,70.88v111.94h-66.53l-2.29-21.1h-1.38c-5.81,7.65-14.84,13.76-27.06,18.35-12.24,4.59-28.14,6.88-47.71,6.88-52.91,0-79.36-24.77-79.36-74.32,0-21.1,6.95-37.69,20.87-49.78,13.91-12.08,35.85-18.12,65.83-18.12h67.9c-2.14-12.85-7.65-21.48-16.52-25.92-8.87-4.43-24.01-6.65-45.41-6.65-13.46,0-26.69,1-39.68,2.98-13,1.99-24.39,4.21-34.18,6.65l-1.37-.92,.46-53.22c6.11-1.83,13.91-3.59,23.4-5.28,9.48-1.68,19.5-2.98,30.05-3.9,10.55-.92,20.42-1.37,29.59-1.37Zm-2.75,175.71c18.96,0,33.18-2.37,42.66-7.11,9.48-4.74,14.37-12.31,14.68-22.71v-11.47h-51.84c-13.46,0-22.86,1.91-28.21,5.73-5.36,3.83-8.03,8.95-8.03,15.37,0,7.65,2.75,12.92,8.26,15.83,5.51,2.91,13,4.36,22.48,4.36Z"/>
  <path class="cls-2" d="M1605.79,497.92h-73.41V189.18h73.41v179.84h.92l57.81-94.51h80.74v1.83l-67.89,105.52v1.83l78.91,114.23h-84.41l-64.68-103.22-1.38-.46v103.68Z"/>
  <path class="cls-1" d="M2127.39,435.53v62.39h-211.04V207.53h73.41v228h137.63Z"/>
  <path class="cls-7" d="M2232.9,497.92h-73.41V207.53h73.41V497.92Z"/>
  <path class="cls-5" d="M2420.53,483.25c-5.2-16.52-10.48-34.1-15.82-52.76-5.36-18.65-10.63-37.16-15.83-55.51-5.2-18.35-9.94-35.47-14.22-51.38-4.29-15.9-7.96-29.66-11.01-41.29-3.06-11.62-5.2-19.88-6.42-24.77l-1.84,.46c.92,5.5,1.68,12.77,2.3,21.79,.61,9.02,1.06,18.51,1.38,28.44,.3,9.94,.45,19.04,.45,27.3v162.4h-70.19V207.53h122.95c4.28,16.21,8.79,33.26,13.53,51.15,4.74,17.89,9.48,35.63,14.22,53.21,4.74,17.59,8.95,34.26,12.62,50.01,3.67,15.76,6.27,29.44,7.8,41.06h.92c1.53-11.62,4.06-25.23,7.57-40.83,3.51-15.6,7.57-32.27,12.16-50.01,4.58-17.74,9.33-35.55,14.22-53.45,4.89-17.89,9.33-34.94,13.3-51.15h121.11V497.92h-69.27v-162.4c0-8.26,.15-17.35,.45-27.3,.31-9.94,.84-19.42,1.61-28.44,.76-9.02,1.45-16.29,2.06-21.79l-1.83-.46c-1.23,4.89-3.37,13.15-6.42,24.77-3.06,11.63-6.81,25.46-11.24,41.52-4.44,16.05-9.26,33.26-14.45,51.61-5.2,18.35-10.48,36.78-15.83,55.28-5.35,18.51-10.48,36.01-15.37,52.53h-78.91Z"/>
  <path class="cls-6" d="M2678.82,423.15c13.46,4.59,28.22,8.18,44.27,10.78,16.06,2.6,32.04,3.9,47.95,3.9,21.71,0,37.85-.99,48.4-2.98,10.55-1.98,17.5-5.12,20.87-9.4,3.36-4.28,5.05-9.78,5.05-16.52,0-5.8-1.23-10.39-3.68-13.76-2.45-3.36-7.19-6.04-14.21-8.03-7.04-1.98-17.44-3.59-31.2-4.82l-30.28-2.75c-22.64-2.14-40.45-6.88-53.45-14.22-13-7.34-22.18-17.2-27.53-29.59-5.35-12.39-8.02-27.3-8.02-44.73,0-20.79,4.2-37.62,12.62-50.46,8.4-12.85,22.09-22.25,41.05-28.21,18.96-5.97,44.19-8.95,75.7-8.95,40.98,0,74.78,5.35,101.39,16.05l-1.38,62.4-1.38,1.83c-30.28-10.7-61.94-16.06-94.97-16.06-15.9,0-28.14,.85-36.7,2.52-8.57,1.68-14.53,4.36-17.89,8.03-3.37,3.67-5.05,8.88-5.05,15.6s1.15,11.78,3.44,15.14c2.3,3.37,6.96,5.89,13.99,7.57,7.03,1.69,17.28,3.29,30.74,4.82l28.91,3.21c24.46,2.75,43.27,7.65,56.42,14.68,13.15,7.04,22.25,16.44,27.3,28.21,5.05,11.78,7.57,26.08,7.57,42.9,0,20.49-4.36,37.55-13.08,51.15-8.72,13.61-22.86,23.78-42.44,30.51-19.57,6.73-45.72,10.09-78.44,10.09-21.41,0-40.68-1.15-57.81-3.44-17.13-2.29-33.8-5.43-50-9.4v-64.68l1.83-1.38Z"/>
  <g>
    <path class="cls-10" d="M379.06,367.36c1.59-.07,3.13-.31,4.71-.43-.15,.01-.3,.04-.45,.05-1.42,.19-2.84,.28-4.26,.38Z"/>
    <path class="cls-8" d="M479.34,323.27c-24.78,24.78-58.31,40.87-95.57,43.66,1.25-.09,2.44-.17,3.71-.42,19.21-3.03,36.52-12.11,49.67-25.26,11.45-11.45,19.77-26.02,23.84-42.29,1.61-6.91,2.46-14.1,2.46-21.57-.09-49.29-43.42-89.68-92.81-89.68H209.91c-71.05,0-128.66,57.61-128.66,128.66V182.59c0-65.09,52.79-117.88,117.88-117.88h173.22c2.65,0,5.2,.09,7.76,.19,71.33,3.6,129.61,56.57,141.34,125.45,1.51,8.42,2.27,17.03,2.27,25.83,0,41.82-16.93,79.66-44.37,107.09Z"/>
    <path class="cls-9" d="M586.43,277.67c0,37.46-9.65,72.56-26.58,103.12-.09,.09-.19,.28-.28,.38-9.65,17.31-21.57,33.11-35.48,47.02-38.5,38.5-91.67,62.34-150.52,62.34H208.49c-70.29,0-127.24,57.05-127.24,127.34v-250.32H372.34c2.27,0,4.54-.09,6.72-.19,39.17-1.7,74.45-18.26,100.28-44.09,27.43-27.43,44.37-65.28,44.37-107.09,0-80.98-63.57-147.2-143.61-151.27,114.57,3.41,206.33,97.35,206.33,212.77Z"/>
    <path class="cls-3" d="M246.06,490.51v167.92l-164.8-40.59v-.28c0-10.88,1.32-21.38,3.97-31.5,14.19-54.97,63.95-95.55,123.27-95.55h37.56Z"/>
    <path class="cls-4" d="M246.06,187.68v128.66H81.26c0-71.05,57.61-128.66,128.66-128.66h36.14Z"/>
    <path class="cls-11" d="M246.06,187.68v33.3c-129.23-9.46-164.8,95.36-164.8,95.36,0-71.05,57.61-128.66,128.66-128.66h36.14Z"/>
    <path class="cls-11" d="M246.06,490.51v31.69c-129.23-9.46-164.8,95.36-164.8,95.36,0-10.88,1.32-21.38,3.97-31.5,14.19-54.97,63.95-95.55,123.27-95.55h37.56Z"/>
    <path class="cls-12" d="M559.57,381.17c-9.65,17.31-21.57,33.11-35.48,47.02-38.5,38.5-91.67,62.34-150.52,62.34H208.49c-70.29,0-127.24,57.05-127.24,127.34v-154.02s23.65-66.98,152.12-40.21c114.28,23.84,247.11,66.79,326.2-42.48Z"/>
    <path class="cls-13" d="M479.34,323.27c-24.78,24.78-58.31,40.87-95.57,43.66,1.25-.09,2.44-.17,3.71-.42,59.41-6.53,105.58-56.95,105.58-118.16,0-32.83-13.34-62.53-34.82-84.1-21.57-21.47-51.28-34.81-84.1-34.81H211.89c-72.18,0-130.65,58.47-130.65,130.65v-77.48c0-65.09,52.79-117.88,117.88-117.88h173.22c2.65,0,5.2,.09,7.76,.19,71.33,3.6,129.61,56.57,141.34,125.45,1.51,8.42,2.27,17.03,2.27,25.83,0,41.82-16.93,79.66-44.37,107.09Z"/>
  </g>
</svg>