<svg xmlns="http://www.w3.org/2000/svg" width="42" height="38" fill="#22c55e">
  <path fill="#22c55e" d="M5.747 28.726c1.54 1.074 4.037 1.074 5.577 0s1.54-2.816 0-3.89c-1.54-1.075-4.037-1.075-5.577 0-1.54 1.074-1.54 2.816 0 3.89ZM21.732 14.137c2.31 1.611 6.056 1.611 8.366 0 2.31-1.611 2.31-4.224 0-5.835-2.31-1.612-6.055-1.612-8.366 0-2.31 1.611-2.31 4.224 0 5.835ZM13.246 21.431c1.926 1.343 5.047 1.343 6.972 0 1.925-1.342 1.925-3.52 0-4.863-1.925-1.342-5.046-1.342-6.972 0-1.925 1.343-1.925 3.52 0 4.863ZM.866 20.459c1.155.806 3.028.806 4.183 0 1.156-.806 1.156-2.112 0-2.918-1.155-.806-3.028-.806-4.183 0-1.155.806-1.155 2.112 0 2.918ZM13.246 5.87c1.926 1.343 5.047 1.343 6.972 0 1.925-1.343 1.925-3.52 0-4.863-1.925-1.343-5.046-1.343-6.972 0-1.925 1.343-1.925 3.52 0 4.863ZM5.747 13.165c1.54 1.074 4.037 1.074 5.577 0 1.54-1.075 1.54-2.817 0-3.89-1.54-1.075-4.037-1.075-5.577 0-1.54 1.073-1.54 2.815 0 3.89ZM13.246 36.993c1.926 1.343 5.047 1.343 6.972 0 1.925-1.343 1.925-3.52 0-4.863-1.925-1.343-5.046-1.343-6.972 0-1.925 1.343-1.925 3.52 0 4.863ZM31.901 21.918c2.31 1.611 6.056 1.611 8.366 0 2.31-1.612 2.31-4.224 0-5.836-2.31-1.611-6.056-1.611-8.366 0-2.31 1.612-2.31 4.224 0 5.836ZM21.732 29.698c2.31 1.612 6.056 1.612 8.366 0 2.31-1.611 2.31-4.224 0-5.835-2.31-1.611-6.055-1.611-8.366 0-2.31 1.611-2.31 4.224 0 5.835Z"/>
</svg>
