<?xml version="1.0" encoding="UTF-8"?>
<svg id="Layer_1" data-name="Layer 1" xmlns="http://www.w3.org/2000/svg" xmlns:xlink="http://www.w3.org/1999/xlink" viewBox="0 0 3000 3000">
  <defs>
    <style>
      .cls-1 {
        fill: url(#linear-gradient);
      }

      .cls-2 {
        fill: url(#linear-gradient-3);
      }

      .cls-3 {
        fill: url(#linear-gradient-4);
      }

      .cls-4 {
        fill: url(#linear-gradient-2);
      }

      .cls-5 {
        fill: url(#linear-gradient-6);
      }

      .cls-6 {
        fill: url(#linear-gradient-7);
      }

      .cls-7 {
        fill: url(#linear-gradient-5);
      }

      .cls-8 {
        opacity: .19;
      }
    </style>
    <linearGradient id="linear-gradient" x1="1730.14" y1="1525.75" x2="1710.12" y2="1525.75" gradientUnits="userSpaceOnUse">
      <stop offset="0" stop-color="#009c69"/>
      <stop offset="1" stop-color="#00f269"/>
    </linearGradient>
    <linearGradient id="linear-gradient-2" x1="2296.93" y1="825.68" x2="417.1" y2="825.68" xlink:href="#linear-gradient"/>
    <linearGradient id="linear-gradient-3" x1="1972.54" y1="2721.7" x2="1396.23" y2="1575.22" xlink:href="#linear-gradient"/>
    <linearGradient id="linear-gradient-4" x1="610.72" y1="2170.47" x2="911.14" y2="2820.36" xlink:href="#linear-gradient"/>
    <linearGradient id="linear-gradient-5" x1="712.69" y1="676.32" x2="712.69" y2="1283.28" xlink:href="#linear-gradient"/>
    <linearGradient id="linear-gradient-6" x1="-100.78" y1="2585.33" x2="2081.83" y2="1530.81" xlink:href="#linear-gradient"/>
    <linearGradient id="linear-gradient-7" x1="1354.91" y1="1524.76" x2="1354.91" y2="126.6" xlink:href="#linear-gradient"/>
  </defs>
  <path class="cls-1" d="M1709.21,1526.75c7.36-.32,14.49-1.45,21.8-1.99-.71,.05-1.38,.19-2.1,.24-6.56,.88-13.13,1.31-19.7,1.75Z"/>
  <path class="cls-4" d="M2173.15,1322.79c-114.63,114.63-269.75,189.1-442.15,201.97,5.77-.4,11.31-.78,17.16-1.95,88.85-14.01,168.94-56.02,229.78-116.86,52.96-52.96,91.48-120.36,110.3-195.64,7.44-31.95,11.38-65.21,11.38-99.79-.44-228.03-200.9-414.92-429.37-414.92H926.64c-328.7,0-595.25,266.55-595.25,595.25V671.95c0-301.12,244.23-545.35,545.35-545.35h801.39c12.25,0,24.07,.44,35.89,.87,330.01,16.63,599.62,261.74,653.9,580.37,7,38.95,10.5,78.78,10.5,119.49,0,193.46-78.35,368.53-205.27,495.46Z"/>
  <path class="cls-2" d="M2668.61,1111.82c0,173.32-44.64,335.7-122.99,477.07-.44,.44-.88,1.31-1.31,1.75-44.64,80.1-99.79,153.19-164.13,217.53-178.14,178.14-424.11,288.43-696.35,288.43H920.07c-325.2,0-588.68,263.92-588.68,589.12V1527.62H1678.14c10.5,0,21.01-.44,31.07-.87,181.2-7.88,344.45-84.47,463.94-203.96,126.93-126.93,205.27-302,205.27-495.46,0-374.65-294.12-681.03-664.4-699.85,530.03,15.76,954.58,450.38,954.58,984.34Z"/>
  <path class="cls-3" d="M1093.91,2096.51v776.88l-762.44-187.76v-1.31c0-50.33,6.13-98.91,18.38-145.75,65.65-254.29,295.87-442.06,570.3-442.06h173.76Z"/>
  <path class="cls-7" d="M1093.91,695.49v595.25H331.47c0-328.7,266.55-595.25,595.25-595.25h167.19Z"/>
  <path class="cls-8" d="M1093.91,695.49v154.06c-597.87-43.77-762.44,441.18-762.44,441.18,0-328.7,266.55-595.25,595.25-595.25h167.19Z"/>
  <path class="cls-8" d="M1093.91,2096.51v146.62c-597.87-43.77-762.44,441.18-762.44,441.18,0-50.33,6.13-98.91,18.38-145.75,65.65-254.29,295.87-442.06,570.3-442.06h173.76Z"/>
  <path class="cls-5" d="M2544.31,1590.65c-44.64,80.1-99.79,153.19-164.13,217.53-178.14,178.14-424.11,288.43-696.35,288.43H920.07c-325.2,0-588.68,263.92-588.68,589.12v-712.54s109.42-309.88,703.79-186.01c528.72,110.29,1143.22,309,1509.12-196.52Z"/>
  <path class="cls-6" d="M2173.15,1322.79c-114.63,114.63-269.75,189.1-442.15,201.97,5.77-.4,11.31-.78,17.16-1.95,274.87-30.2,488.45-263.48,488.45-546.66,0-151.87-61.71-289.31-161.07-389.1-99.79-99.35-237.22-161.07-389.1-161.07H935.83c-333.95,0-604.44,270.49-604.44,604.44v-358.46c0-301.12,244.23-545.35,545.35-545.35h801.39c12.25,0,24.07,.44,35.89,.87,330.01,16.63,599.62,261.74,653.9,580.37,7,38.95,10.5,78.78,10.5,119.49,0,193.46-78.35,368.53-205.27,495.46Z"/>
</svg>